<svg width="50" height="50" viewBox="0 0 50 50" fill="none" xmlns="http://www.w3.org/2000/svg">
<path d="M50 25C50 11.1929 38.8071 0 25 0C11.1929 0 0 11.1929 0 25C0 38.8071 11.1929 50 25 50C38.8071 50 50 38.8071 50 25Z" fill="#131313"/>
<path d="M19.7935 25C19.7935 22.1236 22.1246 19.7912 25.001 19.7912C27.8773 19.7912 30.2097 22.1236 30.2097 25C30.2097 27.8764 27.8773 30.2087 25.001 30.2087C22.1246 30.2087 19.7935 27.8764 19.7935 25ZM16.9777 25C16.9777 29.4312 20.5697 33.0232 25.001 33.0232C29.4322 33.0232 33.0242 29.4312 33.0242 25C33.0242 20.5687 29.4322 16.9768 25.001 16.9768C20.5697 16.9768 16.9777 20.5687 16.9777 25ZM31.4668 16.6586C31.4667 17.0295 31.5765 17.392 31.7824 17.7004C31.9884 18.0089 32.2811 18.2493 32.6236 18.3914C32.9662 18.5334 33.3432 18.5707 33.7069 18.4985C34.0707 18.4262 34.4048 18.2478 34.6671 17.9857C34.9295 17.7236 35.1082 17.3896 35.1807 17.0259C35.2532 16.6622 35.2162 16.2852 35.0744 15.9425C34.9326 15.5999 34.6924 15.307 34.3842 15.1008C34.0759 14.8947 33.7135 14.7845 33.3426 14.7844H33.3418C32.8447 14.7846 32.3681 14.9821 32.0165 15.3335C31.6649 15.685 31.4672 16.1616 31.4668 16.6586ZM18.6885 37.7183C17.1651 37.649 16.3371 37.3952 15.7868 37.1808C15.0573 36.8969 14.5368 36.5586 13.9896 36.0121C13.4423 35.4656 13.1036 34.9456 12.8209 34.2161C12.6064 33.6661 12.3526 32.8379 12.2834 31.3145C12.2076 29.6675 12.1924 29.1727 12.1924 25.0001C12.1924 20.8275 12.2089 20.3342 12.2834 18.6857C12.3527 17.1624 12.6084 16.3357 12.8209 15.7842C13.1048 15.0546 13.4431 14.5342 13.9896 13.9869C14.5361 13.4396 15.0561 13.1008 15.7868 12.8181C16.3368 12.6036 17.1651 12.3499 18.6885 12.2806C20.3355 12.2049 20.8302 12.1898 25.001 12.1898C29.1717 12.1898 29.667 12.2061 31.3154 12.2806C32.8387 12.35 33.6654 12.6056 34.217 12.8181C34.9465 13.1008 35.467 13.4404 36.0142 13.9869C36.5615 14.5333 36.899 15.0546 37.183 15.7842C37.3974 16.3342 37.6512 17.1624 37.7205 18.6857C37.7962 20.3342 37.8114 20.8275 37.8114 25.0001C37.8114 29.1727 37.7962 29.6661 37.7205 31.3145C37.6511 32.8379 37.3961 33.6658 37.183 34.2161C36.899 34.9456 36.5608 35.4661 36.0142 36.0121C35.4677 36.5581 34.9465 36.8969 34.217 37.1808C33.667 37.3954 32.8387 37.6492 31.3154 37.7183C29.6684 37.7942 29.1736 37.8093 25.001 37.8093C20.8284 37.8093 20.3349 37.7942 18.6885 37.7183ZM18.5591 9.46963C16.8958 9.54538 15.7591 9.80913 14.7665 10.1954C13.7385 10.5943 12.8683 11.1294 11.9986 11.9976C11.129 12.8658 10.5952 13.7375 10.1964 14.7655C9.8101 15.7587 9.54635 16.8948 9.4706 18.5581C9.3936 20.2242 9.37598 20.7568 9.37598 25C9.37598 29.2432 9.3936 29.7758 9.4706 31.4419C9.54635 33.1054 9.8101 34.2412 10.1964 35.2345C10.5952 36.2619 11.1291 37.1345 11.9986 38.0024C12.8681 38.8702 13.7385 39.4046 14.7665 39.8046C15.761 40.1908 16.8958 40.4546 18.5591 40.5304C20.226 40.6061 20.7577 40.625 25.001 40.625C29.2442 40.625 29.7768 40.6074 31.4429 40.5304C33.1064 40.4546 34.2422 40.1908 35.2355 39.8046C36.2628 39.4046 37.1337 38.8706 38.0034 38.0024C38.873 37.1342 39.4056 36.2619 39.8056 35.2345C40.1918 34.2412 40.4568 33.1052 40.5314 31.4419C40.6071 29.7746 40.6247 29.2432 40.6247 25C40.6247 20.7568 40.6071 20.2242 40.5314 18.5581C40.4556 16.8946 40.1918 15.7581 39.8056 14.7655C39.4056 13.7381 38.8716 12.8673 38.0034 11.9976C37.1351 11.128 36.2629 10.5943 35.2367 10.1954C34.2422 9.80913 33.1062 9.54413 31.4441 9.46963C29.7781 9.39388 29.2455 9.375 25.0022 9.375C20.759 9.375 20.226 9.39263 18.5591 9.46963Z" fill="white"/>
</svg>
