<svg width="842" height="596" viewBox="0 0 842 596" fill="none" xmlns="http://www.w3.org/2000/svg">
<path d="M276.61 380.788C277.04 380.928 277.69 381.098 278.57 381.288C279.45 381.478 280.44 381.628 281.53 381.748C282.62 381.868 283.64 381.928 284.6 381.928L276.62 382.638V380.788H276.61ZM315.75 381.928V384.068H276.61V381.928H315.75ZM280.96 383.928V384.068C279.87 384.118 279 384.488 278.36 385.168C277.72 385.858 277.4 386.698 277.4 387.698V388.838H276.62V383.918H280.96V383.928ZM294 420.208V424.768H288.8V424.058C288.85 424.058 289.13 424.058 289.66 424.058C290.8 424.058 291.77 423.678 292.58 422.918C293.39 422.158 293.82 421.258 293.86 420.208H294ZM298.5 382.218V424.778H293.87V382.218H298.5ZM298.28 420.208H298.49C298.54 421.258 298.96 422.158 299.77 422.918C300.58 423.678 301.55 424.058 302.69 424.058H303.47V424.768H298.27V420.208H298.28ZM315.75 380.788V382.638L307.77 381.928C308.72 381.928 309.73 381.868 310.8 381.748C311.87 381.628 312.85 381.478 313.76 381.288C314.65 381.098 315.32 380.928 315.75 380.788ZM315.75 383.928V388.848H314.97V387.708C314.97 386.708 314.65 385.868 314.01 385.178C313.37 384.488 312.5 384.118 311.41 384.078V383.938H315.75V383.928Z" fill="black"/>
<path d="M325.94 386.498H325.8C325.75 385.408 325.35 384.498 324.59 383.788C323.83 383.078 322.85 382.718 321.67 382.718H320.67V381.998H326.87L325.94 386.498ZM325.94 420.208L326.87 424.768H320.67V424.058H321.67C322.86 424.058 323.83 423.678 324.59 422.918C325.35 422.158 325.75 421.258 325.8 420.208H325.94ZM330.36 381.998V424.768H325.8V381.998H330.36ZM349.47 381.998V384.208H330.22V381.998H349.47ZM346.19 402.318V404.458H330.22V402.318H346.19ZM349.54 422.568L349.4 424.778H330.22V422.568H349.54ZM353.53 414.578L349.61 424.768H338.77L341.19 422.558C343.57 422.558 345.48 422.218 346.93 421.528C348.38 420.838 349.56 419.888 350.46 418.678C351.36 417.468 352.15 416.098 352.81 414.578H353.53ZM349.47 380.858V382.708L341.34 381.998C342.81 381.998 344.38 381.868 346.05 381.608C347.71 381.348 348.85 381.098 349.47 380.858ZM346.19 398.398V402.458H342.48V402.318C343.48 402.318 344.21 402.018 344.69 401.428C345.16 400.838 345.4 400.138 345.4 399.328V398.398H346.19ZM346.19 404.318V408.378H345.41V407.448C345.41 406.638 345.17 405.938 344.7 405.348C344.22 404.758 343.49 404.458 342.49 404.458V404.318H346.19ZM349.47 383.998V388.918H348.69V387.848C348.69 386.848 348.37 385.998 347.73 385.278C347.09 384.558 346.22 384.208 345.13 384.208V383.998H349.47Z" fill="black"/>
<path d="M364.791 386.498H364.651C364.601 385.408 364.201 384.498 363.441 383.788C362.681 383.078 361.731 382.718 360.591 382.718H359.591V381.998H365.651L364.791 386.498ZM364.791 420.208L365.651 424.768H359.591V424.058H360.591C361.731 424.058 362.681 423.678 363.441 422.918C364.201 422.158 364.601 421.258 364.651 420.208H364.791ZM369.141 381.998V424.768H364.581V381.998H369.141ZM368.931 420.208H369.141C369.191 421.258 369.591 422.158 370.351 422.918C371.111 423.678 372.061 424.058 373.201 424.058H374.131L374.201 424.768H368.071L368.931 420.208ZM377.481 381.998C379.711 381.998 381.721 382.258 383.501 382.778C385.281 383.298 386.801 384.058 388.061 385.058C389.321 386.058 390.281 387.268 390.951 388.698C391.621 390.128 391.951 391.738 391.951 393.548C391.951 395.548 391.471 397.398 390.521 399.108C389.571 400.818 388.251 402.218 386.561 403.318C384.871 404.408 382.961 405.078 380.821 405.318C381.631 405.648 382.571 406.388 383.641 407.528C384.711 408.668 385.621 409.788 386.391 410.878C387.621 412.538 388.731 413.978 389.701 415.188C390.671 416.398 391.641 417.548 392.591 418.648C393.591 419.738 394.501 420.688 395.341 421.498C396.171 422.308 397.071 422.938 398.051 423.388C399.021 423.838 400.151 424.068 401.441 424.068V424.778H399.231C396.621 424.778 394.471 424.448 392.781 423.778C391.091 423.108 389.731 422.298 388.681 421.318C387.631 420.348 386.731 419.408 385.971 418.498C385.781 418.258 385.341 417.658 384.651 416.678C383.961 415.708 383.211 414.648 382.401 413.508C381.591 412.368 380.861 411.338 380.191 410.408C379.521 409.478 379.121 408.918 378.981 408.728C378.031 407.488 376.941 406.388 375.701 405.418C374.461 404.448 373.161 403.958 371.781 403.958V403.248C373.301 403.298 374.661 403.298 375.841 403.248C377.171 403.198 378.501 403.098 379.831 402.928C381.161 402.758 382.411 402.248 383.571 401.398C384.731 400.538 385.651 399.118 386.321 397.118C386.511 396.598 386.651 395.978 386.751 395.268C386.841 394.558 386.871 393.818 386.821 393.058C386.771 391.728 386.521 390.538 386.071 389.498C385.621 388.458 384.981 387.548 384.151 386.788C383.321 386.028 382.331 385.438 381.191 385.008C380.051 384.578 378.771 384.338 377.341 384.298C375.111 384.208 373.161 384.178 371.491 384.228C369.831 384.278 368.991 384.278 368.991 384.228C368.991 384.178 368.931 383.978 368.811 383.618C368.691 383.258 368.511 382.728 368.281 382.018H377.481V381.998Z" fill="black"/>
<path d="M409.561 386.498H409.421C409.371 385.408 408.971 384.498 408.211 383.788C407.451 383.078 406.471 382.718 405.291 382.718H404.291V381.998H410.491L409.561 386.498ZM409.561 420.208L410.491 424.768H404.291V424.058H405.291C406.481 424.058 407.451 423.678 408.211 422.918C408.971 422.158 409.371 421.258 409.421 420.208H409.561ZM413.981 381.998V424.768H409.421V381.998H413.981ZM433.091 381.998V384.208H413.841V381.998H433.091ZM429.811 402.318V404.458H413.841V402.318H429.811ZM433.161 422.568L433.021 424.778H413.841V422.568H433.161ZM437.151 414.578L433.231 424.768H422.391L424.811 422.558C427.191 422.558 429.101 422.218 430.551 421.528C432.001 420.838 433.181 419.888 434.081 418.678C434.981 417.468 435.771 416.098 436.431 414.578H437.151ZM433.091 380.858V382.708L424.961 381.998C426.431 381.998 428.001 381.868 429.671 381.608C431.331 381.348 432.471 381.098 433.091 380.858ZM429.811 398.398V402.458H426.101V402.318C427.101 402.318 427.831 402.018 428.311 401.428C428.781 400.838 429.021 400.138 429.021 399.328V398.398H429.811ZM429.811 404.318V408.378H429.031V407.448C429.031 406.638 428.791 405.938 428.321 405.348C427.841 404.758 427.111 404.458 426.111 404.458V404.318H429.811ZM433.091 383.998V388.918H432.311V387.848C432.311 386.848 431.991 385.998 431.351 385.278C430.711 384.558 429.841 384.208 428.751 384.208V383.998H433.091Z" fill="black"/>
<path d="M447.27 419.997V424.777H439.86V424.067H440.93C442.17 424.067 443.25 423.707 444.17 422.997C445.09 422.287 445.63 421.287 445.77 420.007H447.27V419.997ZM451.34 381.007H452.05L453.48 385.217L449.06 424.777H445.14L451.34 381.007ZM449.41 421.067C449.36 421.777 449.53 422.457 449.91 423.097C450.29 423.737 451 424.087 452.05 424.127H453.05V424.767H448.99V421.057H449.41V421.067ZM452.05 381.007L471.44 418.287L469.8 425.777L450.69 388.847L452.05 381.007ZM489.05 381.007L489.69 385.637L473.01 418.497C472.3 420.117 471.75 421.477 471.37 422.597C470.99 423.717 470.7 424.767 470.51 425.767H469.8L468.8 421.277L489.05 381.007ZM489.69 381.007L496.11 424.777H490.69L486.06 388.917L489.05 381.007H489.69ZM490.19 421.067H490.69V424.777H486.56V424.137H487.63C488.72 424.087 489.45 423.737 489.8 423.067C490.15 422.397 490.28 421.737 490.19 421.067ZM493.96 419.997H495.39C495.58 421.277 496.15 422.277 497.1 422.987C498.05 423.697 499.12 424.057 500.31 424.057H501.38V424.767H493.97V419.997H493.96Z" fill="black"/>
<path d="M529.47 381.007C532.8 381.007 535.92 381.537 538.84 382.607C541.76 383.677 544.33 385.207 546.54 387.207C548.75 389.207 550.47 391.567 551.71 394.297C552.95 397.027 553.56 400.057 553.56 403.387C553.56 406.717 552.94 409.747 551.71 412.477C550.47 415.207 548.75 417.577 546.54 419.567C544.33 421.557 541.76 423.097 538.84 424.167C535.92 425.237 532.79 425.767 529.47 425.767C526.14 425.767 523.03 425.227 520.13 424.167C517.23 423.097 514.68 421.567 512.47 419.567C510.26 417.567 508.54 415.207 507.3 412.477C506.06 409.747 505.45 406.717 505.45 403.387C505.45 400.057 506.07 397.027 507.3 394.297C508.54 391.567 510.26 389.197 512.47 387.207C514.68 385.207 517.23 383.677 520.13 382.607C523.03 381.537 526.14 381.007 529.47 381.007ZM529.47 423.637C532.99 423.637 536.17 422.777 539.02 421.067C541.87 419.357 544.13 416.977 545.79 413.937C547.45 410.897 548.29 407.377 548.29 403.387C548.29 399.347 547.46 395.817 545.79 392.797C544.13 389.777 541.87 387.417 539.02 385.707C536.17 383.997 532.98 383.137 529.47 383.137C526 383.137 522.84 383.997 519.99 385.707C517.14 387.417 514.88 389.787 513.22 392.797C511.56 395.817 510.72 399.347 510.72 403.387C510.72 407.377 511.55 410.897 513.22 413.937C514.88 416.977 517.14 419.357 519.99 421.067C522.84 422.777 526 423.637 529.47 423.637Z" fill="black"/>
<path d="M566.18 386.568H566.04C565.99 385.478 565.56 384.558 564.76 383.818C563.95 383.078 562.981 382.718 561.841 382.718H560.98V381.998H566.18V386.568ZM566.18 420.208V424.768H560.98V424.058H561.841C562.981 424.058 563.95 423.678 564.76 422.918C565.57 422.158 566 421.258 566.04 420.208H566.18ZM570.6 381.998V424.768H566.04V381.998H570.6ZM570.38 386.568V381.998H575.581V382.708C575.061 382.708 574.77 382.708 574.72 382.708C573.58 382.708 572.6 383.078 571.8 383.808C570.99 384.548 570.591 385.458 570.591 386.558H570.38V386.568ZM570.38 420.208H570.591C570.591 421.258 570.99 422.158 571.8 422.918C572.61 423.678 573.61 424.058 574.79 424.058H575.57V424.768H570.37V420.208H570.38ZM596.12 382.498L576.451 403.528H573.1L590.99 382.498H596.12ZM577.091 400.888L595.701 421.138C596.511 422.088 597.361 422.798 598.271 423.278C599.171 423.758 600.38 424.018 601.91 424.058V424.768H599.271C598.701 424.768 598 424.728 597.17 424.658C596.34 424.588 595.431 424.418 594.461 424.158C593.491 423.898 592.51 423.488 591.54 422.948C590.57 422.398 589.65 421.658 588.8 420.698C587.33 419.038 585.99 417.548 584.81 416.238C583.62 414.928 582.35 413.558 581 412.108C579.65 410.658 578.37 409.278 577.19 407.978C576 406.668 574.65 405.188 573.13 403.518L577.091 400.888ZM600.75 381.998V382.708H600.461C598.991 382.708 597.62 382.948 596.36 383.418C595.1 383.898 594.07 384.608 593.26 385.558L588.41 385.488C588.93 384.818 589.02 384.198 588.66 383.598C588.3 383.008 587.701 382.708 586.841 382.708H586.201V381.998H600.461H600.75Z" fill="black"/>
<path d="M319.35 235.979C319.35 235.979 311.95 249.289 315.76 256.459C316.45 257.749 317.73 258.619 319.17 258.859C322.87 259.469 330.72 259.489 330.47 248.719C330.48 248.719 331.53 242.619 319.35 235.979Z" fill="black"/>
<path d="M316.23 232.92C316.23 232.92 297.41 222.69 269.05 219.01C269.05 219.01 244.91 213.42 249.69 219.01C249.69 219.01 251.74 223.37 257.05 225.56C262.37 227.74 288.69 244.51 293.46 249.7C298.23 254.88 305.05 259.52 302.6 269.47C300.15 279.42 297.28 290.88 303.55 309.56C309.82 328.24 319.5 333.29 325.37 336.29C331.23 339.29 344.32 344.88 361.37 337.65L370.64 333.56C370.64 333.56 349.5 319.79 351.82 300.42C351.82 300.42 349.5 288.42 365.46 274.24C365.46 274.24 378.41 265.1 394.78 262.51C411.14 259.92 421.51 256.92 440.46 263.06C459.41 269.2 466.23 289.3 469.1 292.75C471.96 296.2 477.15 308.47 497.87 327.7C518.6 346.93 532.23 341.88 534.82 338.75C534.82 338.75 522.41 332.07 518.18 309.16C513.95 286.25 516.41 282.95 504.41 263.75L481.64 232.11C481.64 232.11 466.39 206.96 466.37 205.52C466.37 205.52 435.14 197.07 412.78 197.07C390.42 197.07 383.19 195.71 355.51 204.84C355.51 204.84 332.19 213.98 320.6 232.25C320.6 232.25 336.69 239.75 334.1 252.98C331.51 266.21 318.42 263.21 318.42 263.21C318.42 263.21 307.51 262.53 311.74 245.35C311.73 245.33 312.55 241.65 316.23 232.92Z" fill="black"/>
<path d="M376.77 333.959C376.77 333.959 404.37 318.009 416.96 325.909C416.96 325.909 426.68 331.909 410.59 340.639C410.59 340.649 400.36 345.009 376.77 333.959Z" fill="black"/>
<path d="M539.82 338.46C539.82 338.46 546 333.91 551.46 318.64C551.46 318.64 557.46 310.28 573.64 320.64C589.82 331 583.82 337.19 583.82 337.19C583.82 337.19 567.82 350.83 539.82 338.46Z" fill="black"/>
<path d="M467.18 187.66L472.27 194.3C474.8 197.97 486.54 207.66 486.54 207.66C486.54 207.66 492.17 212.25 500.09 216.33C508.01 220.41 512.07 219.83 514.91 218.12C517.75 216.41 518.91 210.3 518.91 210.3C519.62 208.25 518.27 199.95 517.55 195.75C516.83 191.55 515.23 185.26 512.37 176.11C509.51 166.97 506.59 163.86 505.37 162.56C504.15 161.26 500.74 158.81 495.01 158.38C489.27 157.94 482.19 160.99 482.19 160.99C482.19 160.99 476.05 164.11 472.19 169.65C468.33 175.19 466.19 181.66 466.19 181.66C463.98 171.96 467.37 165.02 467.37 165.02C468.67 161.68 475.88 153.78 486.24 149.23C496.6 144.68 499.67 144.66 503.22 144.12C506.77 143.57 521.15 144.73 525.11 146.78C529.06 148.83 539.29 148.83 539.29 148.83C539.29 148.83 545.7 148.35 555.65 149.58C565.6 150.81 575.29 153.81 575.29 153.81C574.61 160.97 571.34 167.11 571.34 167.11C571.34 167.11 568.43 174.15 561.18 177.2C553.93 180.25 551.91 183.61 550.95 183.95C549.99 184.29 542.7 192.68 538.47 201.61C534.24 210.54 534.11 214.36 533.02 217.46C531.93 220.56 531.04 228.75 529.54 238.09C528.04 247.43 524.97 252.14 522.45 257.11C519.93 262.09 513.45 269.38 513.45 269.38C512.94 267.62 507.04 260.18 507.04 260.18L495.38 244.36L486.45 231.06C485.56 230.51 480.18 220.56 478.27 217.46C476.36 214.36 469.74 203.12 469.74 203.12C469.74 203.12 466.72 197.35 467.18 187.66Z" fill="black"/>
<path d="M469.58 184.788C469.58 184.788 474.53 161.558 496.11 162.318C496.11 162.318 503.73 163.078 506.26 170.948C506.26 170.948 513.11 189.478 513.11 194.428C513.11 194.428 516.67 209.898 513.11 213.218C513.11 213.218 512.05 217.268 502.32 213.218C492.59 209.158 472.88 192.148 469.58 184.788Z" fill="black"/>
</svg>
