<svg width="50" height="50" viewBox="0 0 50 50" fill="none" xmlns="http://www.w3.org/2000/svg">
<path d="M50 25C50 11.1929 38.8071 0 25 0C11.1929 0 0 11.1929 0 25C0 38.8071 11.1929 50 25 50C38.8071 50 50 38.8071 50 25Z" fill="#131313"/>
<path fill-rule="evenodd" clip-rule="evenodd" d="M40.902 17.2232C41.1339 16.4506 40.902 15.8828 39.7992 15.8828H36.1525C35.2252 15.8828 34.798 16.3733 34.5662 16.9143C34.5662 16.9143 32.7116 21.4344 30.0844 24.3705C29.2344 25.2204 28.8482 25.4905 28.3845 25.4905C28.1527 25.4905 27.8172 25.2204 27.8172 24.4478V17.2232C27.8172 16.2959 27.5482 15.8828 26.7753 15.8828H21.0447C20.4655 15.8828 20.1169 16.3131 20.1169 16.721C20.1169 17.6001 21.4303 17.8028 21.5658 20.2752V25.6455C21.5658 26.8229 21.3532 27.0365 20.8895 27.0365C19.6533 27.0365 16.6464 22.4958 14.8627 17.3006C14.5131 16.2907 14.1625 15.8828 13.2305 15.8828H9.58379C8.54188 15.8828 8.3335 16.3733 8.3335 16.9143C8.3335 17.8802 9.56999 22.6708 14.0901 29.0067C17.1038 33.3332 21.349 35.6791 25.2125 35.6791C27.5307 35.6791 27.8172 35.1581 27.8172 34.2608V30.9905C27.8172 29.9486 28.0368 29.7407 28.7706 29.7407C29.3118 29.7407 30.2389 30.0111 32.4027 32.0973C34.8751 34.5695 35.2825 35.6791 36.6735 35.6791H40.3202C41.362 35.6791 41.883 35.1581 41.5825 34.13C41.2537 33.1053 40.0732 31.6191 38.5067 29.8567C37.6567 28.852 36.3817 27.7702 35.9957 27.2295C35.4546 26.534 35.6091 26.2251 35.9957 25.6072C35.9957 25.6072 40.4384 19.3484 40.902 17.2235V17.2232Z" fill="white"/>
</svg>
