<svg width="40" height="40" viewBox="0 0 40 40" fill="none" xmlns="http://www.w3.org/2000/svg">
<rect width="40" height="40" rx="20" fill="white"/>
<path d="M28.959 11.0089C26.8149 8.80171 23.8509 7.60352 20.8239 7.60352C14.3915 7.60352 9.22029 12.8377 9.28335 19.2071C9.28335 21.2251 9.85092 23.1801 10.7969 24.9459L9.15723 30.9368L15.2743 29.3603C16.977 30.3062 18.8689 30.7477 20.7608 30.7477C27.1302 30.7477 32.3014 25.5134 32.3014 19.1441C32.3014 16.054 31.1032 13.1531 28.959 11.0089ZM20.8239 28.7927C19.1212 28.7927 17.4185 28.3513 15.968 27.4684L15.5897 27.2792L11.932 28.2251L12.8779 24.6305L12.6257 24.2522C9.85092 19.7747 11.1752 13.8468 15.7158 11.072C20.2563 8.29721 26.1212 9.62153 28.896 14.1621C31.6707 18.7026 30.3464 24.5675 25.8059 27.3423C24.3554 28.2882 22.5897 28.7927 20.8239 28.7927ZM26.3734 21.7927L25.6798 21.4774C25.6798 21.4774 24.6707 21.0359 24.0401 20.7206C23.9771 20.7206 23.914 20.6576 23.8509 20.6576C23.6617 20.6576 23.5356 20.7206 23.4095 20.7837C23.4095 20.7837 23.3464 20.8468 22.4635 21.8558C22.4005 21.9819 22.2743 22.045 22.1482 22.045H22.0852C22.0221 22.045 21.896 21.9819 21.8329 21.9188L21.5176 21.7927C20.8239 21.4774 20.1933 21.099 19.6888 20.5945C19.5626 20.4684 19.3734 20.3423 19.2473 20.2161C18.8059 19.7747 18.3644 19.2702 18.0491 18.7026L17.9861 18.5765C17.923 18.5134 17.923 18.4504 17.8599 18.3242C17.8599 18.1981 17.8599 18.072 17.923 18.0089C17.923 18.0089 18.1752 17.6936 18.3644 17.5044C18.4906 17.3783 18.5536 17.1891 18.6798 17.063C18.8059 16.8738 18.8689 16.6215 18.8059 16.4323C18.7428 16.117 17.9861 14.4143 17.7969 14.0359C17.6707 13.8468 17.5446 13.7837 17.3554 13.7206H17.1662C17.0401 13.7206 16.8509 13.7206 16.6617 13.7206C16.5356 13.7206 16.4095 13.7837 16.2834 13.7837L16.2203 13.8468C16.0942 13.9098 15.968 14.0359 15.8419 14.099C15.7158 14.2251 15.6527 14.3513 15.5266 14.4774C15.0852 15.045 14.8329 15.7387 14.8329 16.4323C14.8329 16.9368 14.959 17.4414 15.1482 17.8828L15.2113 18.072C15.7789 19.2702 16.5356 20.3423 17.5446 21.2882L17.7969 21.5405C17.9861 21.7296 18.1752 21.8558 18.3014 22.045C19.6257 23.1801 21.1392 23.9999 22.8419 24.4414C23.0311 24.5044 23.2834 24.5044 23.4725 24.5675C23.6617 24.5675 23.914 24.5675 24.1032 24.5675C24.4185 24.5675 24.7969 24.4414 25.0491 24.3152C25.2383 24.1891 25.3644 24.1891 25.4906 24.063L25.6167 23.9368C25.7428 23.8107 25.8689 23.7477 25.9951 23.6215C26.1212 23.4954 26.2473 23.3693 26.3104 23.2432C26.4365 22.9909 26.4996 22.6756 26.5626 22.3603C26.5626 22.2341 26.5626 22.045 26.5626 21.9188C26.5626 21.9188 26.4996 21.8558 26.3734 21.7927Z" fill="#EA4D08"/>
</svg>
