<svg width="50" height="50" viewBox="0 0 50 50" fill="none" xmlns="http://www.w3.org/2000/svg">
<path d="M50 25C50 11.1929 38.8071 0 25 0C11.1929 0 0 11.1929 0 25C0 38.8071 11.1929 50 25 50C38.8071 50 50 38.8071 50 25Z" fill="#131313"/>
<path d="M36.1986 13.7626C33.5184 11.0036 29.8135 9.50586 26.0296 9.50586C17.9891 9.50586 11.5251 16.0487 11.604 24.0103C11.604 26.5328 12.3135 28.9766 13.4959 31.1838L11.4463 38.6725L19.0927 36.7018C21.2211 37.8842 23.586 38.4361 25.9508 38.4361C33.9125 38.4361 40.3765 31.8933 40.3765 23.9315C40.3765 20.0689 38.8788 16.4428 36.1986 13.7626ZM26.0296 35.9923C23.9013 35.9923 21.7729 35.4405 19.9598 34.3369L19.4868 34.1004L14.9148 35.2828L16.0972 30.7896L15.7819 30.3167C12.3135 24.7198 13.9688 17.3099 19.6445 13.8415C25.3201 10.373 32.6513 12.0284 36.1197 17.7041C39.5882 23.3797 37.9328 30.7109 32.2571 34.1793C30.4441 35.3617 28.2368 35.9923 26.0296 35.9923ZM32.9666 27.2423L32.0995 26.8482C32.0995 26.8482 30.8382 26.2964 30.0499 25.9022C29.9711 25.9022 29.8922 25.8235 29.8135 25.8235C29.5769 25.8235 29.4193 25.9022 29.2616 25.9811C29.2616 25.9811 29.1828 26.0599 28.0792 27.3212C28.0003 27.4789 27.8427 27.5576 27.685 27.5576H27.6062C27.5274 27.5576 27.3697 27.4789 27.2909 27.4L26.8968 27.2423C26.0296 26.8482 25.2414 26.3752 24.6108 25.7446C24.4531 25.5869 24.2166 25.4293 24.0589 25.2716C23.5071 24.7198 22.9553 24.0892 22.5612 23.3797L22.4823 23.2221C22.4035 23.1433 22.4035 23.0644 22.3247 22.9068C22.3247 22.7491 22.3247 22.5915 22.4035 22.5126C22.4035 22.5126 22.7188 22.1185 22.9554 21.882C23.113 21.7243 23.1918 21.4878 23.3495 21.3302C23.5071 21.0937 23.586 20.7784 23.5071 20.5419C23.4283 20.1477 22.4823 18.0194 22.2459 17.5464C22.0882 17.3099 21.9306 17.2311 21.6941 17.1522H21.4575C21.2999 17.1522 21.0635 17.1522 20.8269 17.1522C20.6693 17.1522 20.5116 17.2311 20.354 17.2311L20.2751 17.3099C20.1174 17.3888 19.9598 17.5464 19.8021 17.6252C19.6445 17.7828 19.5657 17.9405 19.4081 18.0982C18.8562 18.8076 18.5409 19.6748 18.5409 20.5419C18.5409 21.1725 18.6986 21.8032 18.935 22.3549L19.0139 22.5915C19.7234 24.0892 20.6693 25.4293 21.9306 26.6117L22.2459 26.927C22.4823 27.1636 22.7188 27.3212 22.8765 27.5576C24.5319 28.9766 26.4238 30.0014 28.5521 30.5532C28.7887 30.632 29.104 30.632 29.3405 30.7109C29.5769 30.7109 29.8922 30.7109 30.1288 30.7109C30.5228 30.7109 30.9959 30.5532 31.3112 30.3955C31.5476 30.2378 31.7053 30.2378 31.863 30.0802L32.0207 29.9225C32.1783 29.7648 32.336 29.6861 32.4936 29.5284C32.6513 29.3708 32.8089 29.213 32.8877 29.0554C33.0455 28.7401 33.1242 28.346 33.2031 27.9518C33.2031 27.7942 33.2031 27.5576 33.2031 27.4C33.2031 27.4 33.1242 27.3212 32.9666 27.2423Z" fill="white"/>
</svg>
